<?xml version="1.0" encoding="UTF-8" standalone="no"?>
<!DOCTYPE svg PUBLIC "-//W3C//DTD SVG 1.1//EN"
 "http://www.w3.org/Graphics/SVG/1.1/DTD/svg11.dtd">
<!-- Generated by graphviz version 2.43.0 (0)
 -->
<!-- Title: %3 Pages: 1 -->
<svg width="1251pt" height="128pt"
 viewBox="0.00 0.00 1250.89 128.00" xmlns="http://www.w3.org/2000/svg" xmlns:xlink="http://www.w3.org/1999/xlink">
<g id="graph0" class="graph" transform="scale(1 1) rotate(0) translate(4 124)">
<title>%3</title>
<polygon fill="white" stroke="transparent" points="-4,4 -4,-124 1246.89,-124 1246.89,4 -4,4"/>
<!-- 128027340263424 -->
<g id="node1" class="node">
<title>128027340263424</title>
<polygon fill="none" stroke="black" points="0,-83.5 0,-119.5 206,-119.5 206,-83.5 0,-83.5"/>
<text text-anchor="middle" x="51" y="-97.8" font-family="Times,serif" font-size="14.00">data 3.0000</text>
<polyline fill="none" stroke="black" points="102,-83.5 102,-119.5 "/>
<text text-anchor="middle" x="154" y="-97.8" font-family="Times,serif" font-size="14.00">grad 0.0066</text>
</g>
<!-- 128027343663792* -->
<g id="node6" class="node">
<title>128027343663792*</title>
<ellipse fill="none" stroke="black" cx="269" cy="-73.5" rx="27" ry="18"/>
<text text-anchor="middle" x="269" y="-69.8" font-family="Times,serif" font-size="14.00">*</text>
</g>
<!-- 128027340263424&#45;&gt;128027343663792* -->
<g id="edge5" class="edge">
<title>128027340263424&#45;&gt;128027343663792*</title>
<path fill="none" stroke="black" d="M206.47,-84.01C215.74,-82.42 224.64,-80.9 232.65,-79.54"/>
<polygon fill="black" stroke="black" points="233.36,-82.97 242.63,-77.83 232.18,-76.07 233.36,-82.97"/>
</g>
<!-- 128027342811680 -->
<g id="node2" class="node">
<title>128027342811680</title>
<polygon fill="none" stroke="black" points="664,-27.5 664,-63.5 870,-63.5 870,-27.5 664,-27.5"/>
<text text-anchor="middle" x="715" y="-41.8" font-family="Times,serif" font-size="14.00">data 5.0000</text>
<polyline fill="none" stroke="black" points="766,-27.5 766,-63.5 "/>
<text text-anchor="middle" x="818" y="-41.8" font-family="Times,serif" font-size="14.00">grad 0.0066</text>
</g>
<!-- 128027342810912sigmoid -->
<g id="node8" class="node">
<title>128027342810912sigmoid</title>
<ellipse fill="none" stroke="black" cx="953.45" cy="-45.5" rx="47.39" ry="18"/>
<text text-anchor="middle" x="953.45" y="-41.8" font-family="Times,serif" font-size="14.00">sigmoid</text>
</g>
<!-- 128027342811680&#45;&gt;128027342810912sigmoid -->
<g id="edge7" class="edge">
<title>128027342811680&#45;&gt;128027342810912sigmoid</title>
<path fill="none" stroke="black" d="M870.2,-45.5C878.97,-45.5 887.61,-45.5 895.81,-45.5"/>
<polygon fill="black" stroke="black" points="895.94,-49 905.94,-45.5 895.94,-42 895.94,-49"/>
</g>
<!-- 128027342811680+ -->
<g id="node3" class="node">
<title>128027342811680+</title>
<ellipse fill="none" stroke="black" cx="601" cy="-45.5" rx="27" ry="18"/>
<text text-anchor="middle" x="601" y="-41.8" font-family="Times,serif" font-size="14.00">+</text>
</g>
<!-- 128027342811680+&#45;&gt;128027342811680 -->
<g id="edge1" class="edge">
<title>128027342811680+&#45;&gt;128027342811680</title>
<path fill="none" stroke="black" d="M628.35,-45.5C635.8,-45.5 644.4,-45.5 653.61,-45.5"/>
<polygon fill="black" stroke="black" points="653.8,-49 663.8,-45.5 653.8,-42 653.8,-49"/>
</g>
<!-- 128027343658656 -->
<g id="node4" class="node">
<title>128027343658656</title>
<polygon fill="none" stroke="black" points="332,-0.5 332,-36.5 538,-36.5 538,-0.5 332,-0.5"/>
<text text-anchor="middle" x="383" y="-14.8" font-family="Times,serif" font-size="14.00">data 2.0000</text>
<polyline fill="none" stroke="black" points="434,-0.5 434,-36.5 "/>
<text text-anchor="middle" x="486" y="-14.8" font-family="Times,serif" font-size="14.00">grad 0.0066</text>
</g>
<!-- 128027343658656&#45;&gt;128027342811680+ -->
<g id="edge6" class="edge">
<title>128027343658656&#45;&gt;128027342811680+</title>
<path fill="none" stroke="black" d="M538.47,-35.37C547.74,-36.9 556.64,-38.36 564.65,-39.68"/>
<polygon fill="black" stroke="black" points="564.19,-43.15 574.63,-41.32 565.33,-36.24 564.19,-43.15"/>
</g>
<!-- 128027343663792 -->
<g id="node5" class="node">
<title>128027343663792</title>
<polygon fill="none" stroke="black" points="332,-55.5 332,-91.5 538,-91.5 538,-55.5 332,-55.5"/>
<text text-anchor="middle" x="383" y="-69.8" font-family="Times,serif" font-size="14.00">data 3.0000</text>
<polyline fill="none" stroke="black" points="434,-55.5 434,-91.5 "/>
<text text-anchor="middle" x="486" y="-69.8" font-family="Times,serif" font-size="14.00">grad 0.0066</text>
</g>
<!-- 128027343663792&#45;&gt;128027342811680+ -->
<g id="edge8" class="edge">
<title>128027343663792&#45;&gt;128027342811680+</title>
<path fill="none" stroke="black" d="M538.47,-56.01C547.74,-54.42 556.64,-52.9 564.65,-51.54"/>
<polygon fill="black" stroke="black" points="565.36,-54.97 574.63,-49.83 564.18,-48.07 565.36,-54.97"/>
</g>
<!-- 128027343663792*&#45;&gt;128027343663792 -->
<g id="edge2" class="edge">
<title>128027343663792*&#45;&gt;128027343663792</title>
<path fill="none" stroke="black" d="M296.35,-73.5C303.8,-73.5 312.4,-73.5 321.61,-73.5"/>
<polygon fill="black" stroke="black" points="321.8,-77 331.8,-73.5 321.8,-70 321.8,-77"/>
</g>
<!-- 128027342810912 -->
<g id="node7" class="node">
<title>128027342810912</title>
<polygon fill="none" stroke="black" points="1036.89,-27.5 1036.89,-63.5 1242.89,-63.5 1242.89,-27.5 1036.89,-27.5"/>
<text text-anchor="middle" x="1087.89" y="-41.8" font-family="Times,serif" font-size="14.00">data 0.9933</text>
<polyline fill="none" stroke="black" points="1138.89,-27.5 1138.89,-63.5 "/>
<text text-anchor="middle" x="1190.89" y="-41.8" font-family="Times,serif" font-size="14.00">grad 1.0000</text>
</g>
<!-- 128027342810912sigmoid&#45;&gt;128027342810912 -->
<g id="edge3" class="edge">
<title>128027342810912sigmoid&#45;&gt;128027342810912</title>
<path fill="none" stroke="black" d="M1000.99,-45.5C1009.05,-45.5 1017.74,-45.5 1026.69,-45.5"/>
<polygon fill="black" stroke="black" points="1026.89,-49 1036.89,-45.5 1026.89,-42 1026.89,-49"/>
</g>
<!-- 128027343665040 -->
<g id="node9" class="node">
<title>128027343665040</title>
<polygon fill="none" stroke="black" points="0,-28.5 0,-64.5 206,-64.5 206,-28.5 0,-28.5"/>
<text text-anchor="middle" x="51" y="-42.8" font-family="Times,serif" font-size="14.00">data 1.0000</text>
<polyline fill="none" stroke="black" points="102,-28.5 102,-64.5 "/>
<text text-anchor="middle" x="154" y="-42.8" font-family="Times,serif" font-size="14.00">grad 0.0199</text>
</g>
<!-- 128027343665040&#45;&gt;128027343663792* -->
<g id="edge4" class="edge">
<title>128027343665040&#45;&gt;128027343663792*</title>
<path fill="none" stroke="black" d="M206.47,-63.37C215.74,-64.9 224.64,-66.36 232.65,-67.68"/>
<polygon fill="black" stroke="black" points="232.19,-71.15 242.63,-69.32 233.33,-64.24 232.19,-71.15"/>
</g>
</g>
</svg>
